<svg xmlns="http://www.w3.org/2000/svg" width="185.168" height="46" viewBox="0 0 185.168 46">
    <defs>
        <clipPath id="4wj35b55ra">
            <path data-name="패스 235" d="M0 15.416h184.168V-9.912H0z" transform="translate(0 9.912)" style="fill:none"/>
        </clipPath>
    </defs>
    <g data-name="그룹 1189">
        <g data-name="그룹 1186">
            <g data-name="그룹 1139">
                <path data-name="패스 229" d="M7.919 0v6.245H-.259V0h-4.508v16.393h4.508V9.8h8.178v6.59h4.505V0H7.919z" transform="translate(64.082 14.469)" style="fill:#2b2e34"/>
            </g>
            <g data-name="그룹 1140">
                <path data-name="패스 230" d="M9.2 0 4.489 6.491-.221 0h-5.32L2.24 10.715v5.678h4.5v-5.678L14.527 0H9.2z" transform="translate(82.936 14.469)" style="fill:#2b2e34"/>
            </g>
            <g data-name="그룹 1145" transform="translate(1 10)" style="clip-path:url(#4wj35b55ra)">
                <g data-name="그룹 1141">
                    <path data-name="패스 231" d="M7.416 0v13.326a.9.9 0 0 1-.92.915H-.442V0h-4.326v18.179H8.019a3.709 3.709 0 0 0 2.721-1 3.7 3.7 0 0 0 1-2.714V0H7.416z" transform="translate(102.54 3.575)" style="fill:#2b2e34"/>
                </g>
                <g data-name="그룹 1142">
                    <path data-name="패스 232" d="M7.784 0H-5v18.179h4.319V3.935h6.942a.9.9 0 0 1 .917.912v13.332H11.5V3.718A3.691 3.691 0 0 0 10.5 1a3.687 3.687 0 0 0-2.716-1" transform="translate(123.294 3.575)" style="fill:#2b2e34"/>
                </g>
                <g data-name="그룹 1143">
                    <path data-name="패스 233" d="M7.784 0H-5v18.179H7.784a3.689 3.689 0 0 0 2.711-1 3.684 3.684 0 0 0 1-2.714V3.718A3.684 3.684 0 0 0 10.5 1a3.686 3.686 0 0 0-2.716-1m-.608 4.878V13.3a.916.916 0 0 1-.925.94H-.684V3.935h6.907a.91.91 0 0 1 .953.943" transform="translate(143.81 3.575)" style="fill:#2b2e34"/>
                </g>
                <g data-name="그룹 1144">
                    <path data-name="패스 234" d="M2.261 0A3.663 3.663 0 0 0-.452 1a3.672 3.672 0 0 0-1 2.714v14.465h4.317v-5.625h7.86v5.624h4.321V0zm8.463 3.935v4.684H2.865V4.86a.919.919 0 0 1 .922-.925z" transform="translate(160.585 3.575)" style="fill:#2b2e34"/>
                </g>
            </g>
            <path data-name="패스 236" d="M70.379 9.371h4.505V-8.514h-4.505z" transform="translate(110.284 22.234)" style="fill:#2b2e34"/>
            <g data-name="그룹 1147" transform="translate(1 10)" style="clip-path:url(#4wj35b55ra)">
                <g data-name="그룹 1146">
                    <path data-name="패스 237" d="M15.054 15.416c13.661 0 24.733-5.67 24.733-12.667S28.715-9.912 15.054-9.912-9.679-4.242-9.679 2.75 1.393 15.416 15.054 15.416M19.71 9.2c-.414.958-1.122 3-2.755 3.813a4.171 4.171 0 0 1-1.655.387h-.245a43.015 43.015 0 0 1-12.37-1.717c-.031-.008-.112-.041-.138-.051-.327-.11-.5-.263-.5-.447a.549.549 0 0 1 .2-.4c.049-.051.125-.112.222-.2a28.967 28.967 0 0 1 7.955-4.26 39.133 39.133 0 0 1 5.821-1.855c1.255-.263 5.91-.976 3.452 4.74m12.5-12.764a.5.5 0 0 1 .417-.3.845.845 0 0 1 .514.169C36.041-1.9 37.763.33 37.763 2.747c0 4.367-5.617 8.121-13.645 9.764-.516.1-.856.1-.974-.033a.305.305 0 0 1 0-.391 1.864 1.864 0 0 1 .212-.3c4.375-5.154 7.7-12.756 8.65-14.951.072-.151.143-.3.2-.4m-21.734-.162c.411-.953 1.122-3 2.752-3.81a4.1 4.1 0 0 1 1.651-.378c.123-.005.21 0 .245 0A42.976 42.976 0 0 1 27.5-6.2c.026.008.11.041.135.051.327.11.5.258.5.447a.557.557 0 0 1-.2.4c-.049.051-.125.115-.225.2a28.839 28.839 0 0 1-7.964 4.261 39.278 39.278 0 0 1-5.818 1.858c-1.26.263-5.913.974-3.455-4.743M5.988-7.012c.516-.1.856-.1.979.031a.332.332 0 0 1 0 .391 2.485 2.485 0 0 1-.215.3C2.375-1.14-.955 6.465-1.9 8.66c-.072.151-.143.3-.2.4a.492.492 0 0 1-.414.3.885.885 0 0 1-.516-.166C-5.935 7.4-7.66 5.167-7.66 2.75c0-4.37 5.617-8.123 13.648-9.761" transform="translate(9.678 9.912)" style="fill:#2b2e34"/>
                </g>
            </g>
        </g>
        <g data-name="그룹 1188">
            <path data-name="사각형 489" style="fill:none" d="M0 0h185.168v46H0z"/>
        </g>
    </g>
</svg>
